<svg width="36" height="30" viewBox="0 0 36 30" fill="none" xmlns="http://www.w3.org/2000/svg">
<path id="Vector" d="M11.3252 29.6251C24.9068 29.6251 32.3374 18.3702 32.3374 8.61291C32.3374 8.29651 32.3304 7.97307 32.3163 7.65666C33.7618 6.61131 35.0092 5.3165 36 3.83307C34.6538 4.43202 33.2245 4.82319 31.7609 4.99323C33.3019 4.06948 34.4558 2.61833 35.0086 0.908772C33.5588 1.76796 31.9734 2.37404 30.3202 2.70104C29.2063 1.51746 27.7335 0.733797 26.1295 0.471199C24.5256 0.208601 22.8798 0.481698 21.4466 1.24827C20.0134 2.01484 18.8727 3.23218 18.2008 4.71209C17.5288 6.192 17.3631 7.85204 17.7293 9.43557C14.7937 9.28826 11.9219 8.52568 9.29997 7.19727C6.67804 5.86886 4.36454 4.00428 2.50945 1.7244C1.5666 3.34999 1.27808 5.27359 1.70255 7.10426C2.12701 8.93493 3.23259 10.5353 4.79461 11.5801C3.62194 11.5429 2.47496 11.2271 1.44844 10.659V10.7504C1.44739 12.4563 2.03715 14.11 3.11746 15.4303C4.19778 16.7506 5.70199 17.656 7.37437 17.9926C6.28808 18.2898 5.14797 18.3331 4.04227 18.1192C4.51418 19.5863 5.43236 20.8695 6.66866 21.7896C7.90495 22.7098 9.39768 23.221 10.9385 23.252C8.32264 25.3068 5.09126 26.4213 1.76484 26.416C1.17493 26.4151 0.585599 26.379 0 26.3078C3.37928 28.4757 7.3103 29.6272 11.3252 29.6251Z" fill="white"/>
</svg>
